<svg width="630" height="631" fill="none" xmlns="http://www.w3.org/2000/svg"><path d="M362.87 39.22c1.591 0 2.88-1.307 2.88-2.92s-1.289-2.92-2.88-2.92-2.88 1.307-2.88 2.92 1.289 2.92 2.88 2.92zm17.33 0c1.591 0 2.88-1.307 2.88-2.92s-1.289-2.92-2.88-2.92-2.88 1.307-2.88 2.92 1.289 2.92 2.88 2.92zm17.33 0c1.591 0 2.88-1.307 2.88-2.92s-1.289-2.92-2.88-2.92-2.88 1.307-2.88 2.92 1.289 2.92 2.88 2.92zm-34.66 17.62c1.591 0 2.88-1.308 2.88-2.92 0-1.613-1.289-2.92-2.88-2.92s-2.88 1.307-2.88 2.92c0 1.612 1.289 2.92 2.88 2.92zm17.33 0c1.591 0 2.88-1.308 2.88-2.92 0-1.613-1.289-2.92-2.88-2.92s-2.88 1.307-2.88 2.92c0 1.612 1.289 2.92 2.88 2.92zm17.33 0c1.591 0 2.88-1.308 2.88-2.92 0-1.613-1.289-2.92-2.88-2.92s-2.88 1.307-2.88 2.92c0 1.612 1.289 2.92 2.88 2.92zm-34.66 17.62c1.591 0 2.88-1.307 2.88-2.92s-1.289-2.92-2.88-2.92-2.88 1.307-2.88 2.92c0 1.612 1.289 2.92 2.88 2.92zm17.33 0c1.591 0 2.88-1.307 2.88-2.92s-1.289-2.92-2.88-2.92-2.88 1.307-2.88 2.92c0 1.612 1.289 2.92 2.88 2.92zm17.33 0c1.591 0 2.88-1.307 2.88-2.92s-1.289-2.92-2.88-2.92-2.88 1.307-2.88 2.92c0 1.612 1.289 2.92 2.88 2.92zm-34.66 17.62c1.591 0 2.88-1.308 2.88-2.92 0-1.613-1.289-2.92-2.88-2.92s-2.88 1.307-2.88 2.92c0 1.612 1.289 2.92 2.88 2.92zm17.33 0c1.591 0 2.88-1.308 2.88-2.92 0-1.613-1.289-2.92-2.88-2.92s-2.88 1.307-2.88 2.92c0 1.612 1.289 2.92 2.88 2.92zm17.33 0c1.591 0 2.88-1.308 2.88-2.92 0-1.613-1.289-2.92-2.88-2.92s-2.88 1.307-2.88 2.92c0 1.612 1.289 2.92 2.88 2.92zm17.34-52.86c1.591 0 2.88-1.307 2.88-2.92s-1.289-2.92-2.88-2.92-2.88 1.307-2.88 2.92 1.289 2.92 2.88 2.92zm17.33 0c1.591 0 2.88-1.307 2.88-2.92s-1.289-2.92-2.88-2.92-2.88 1.307-2.88 2.92 1.289 2.92 2.88 2.92zm17.33 0c1.591 0 2.88-1.307 2.88-2.92s-1.289-2.92-2.88-2.92-2.88 1.307-2.88 2.92 1.289 2.92 2.88 2.92zm-34.66 17.62c1.591 0 2.88-1.308 2.88-2.92 0-1.613-1.289-2.92-2.88-2.92s-2.88 1.307-2.88 2.92c0 1.612 1.289 2.92 2.88 2.92zm17.33 0c1.591 0 2.88-1.308 2.88-2.92 0-1.613-1.289-2.92-2.88-2.92s-2.88 1.307-2.88 2.92c0 1.612 1.289 2.92 2.88 2.92zm17.33 0c1.591 0 2.88-1.308 2.88-2.92 0-1.613-1.289-2.92-2.88-2.92s-2.88 1.307-2.88 2.92c0 1.612 1.289 2.92 2.88 2.92zm-34.66 17.62c1.591 0 2.88-1.307 2.88-2.92s-1.289-2.92-2.88-2.92-2.88 1.307-2.88 2.92c0 1.612 1.289 2.92 2.88 2.92zm17.33 0c1.591 0 2.88-1.307 2.88-2.92s-1.289-2.92-2.88-2.92-2.88 1.307-2.88 2.92c0 1.612 1.289 2.92 2.88 2.92zm17.33 0c1.591 0 2.88-1.307 2.88-2.92s-1.289-2.92-2.88-2.92-2.88 1.307-2.88 2.92c0 1.612 1.289 2.92 2.88 2.92zm-34.66 17.62c1.591 0 2.88-1.308 2.88-2.92 0-1.613-1.289-2.92-2.88-2.92s-2.88 1.307-2.88 2.92c0 1.612 1.289 2.92 2.88 2.92zm17.33 0c1.591 0 2.88-1.308 2.88-2.92 0-1.613-1.289-2.92-2.88-2.92s-2.88 1.307-2.88 2.92c0 1.612 1.289 2.92 2.88 2.92zm17.33 0c1.591 0 2.88-1.308 2.88-2.92 0-1.613-1.289-2.92-2.88-2.92s-2.88 1.307-2.88 2.92c0 1.612 1.289 2.92 2.88 2.92zM36.49 236.39c1.59 0 2.88-1.307 2.88-2.92s-1.29-2.92-2.88-2.92c-1.59 0-2.88 1.307-2.88 2.92s1.29 2.92 2.88 2.92zm17.33 0c1.59 0 2.88-1.307 2.88-2.92s-1.29-2.92-2.88-2.92c-1.59 0-2.88 1.307-2.88 2.92s1.29 2.92 2.88 2.92zm17.33 0c1.59 0 2.88-1.307 2.88-2.92s-1.29-2.92-2.88-2.92c-1.59 0-2.88 1.307-2.88 2.92s1.29 2.92 2.88 2.92zm-34.66 17.62c1.59 0 2.88-1.307 2.88-2.92s-1.29-2.92-2.88-2.92c-1.59 0-2.88 1.307-2.88 2.92s1.29 2.92 2.88 2.92zm17.33 0c1.59 0 2.88-1.307 2.88-2.92s-1.29-2.92-2.88-2.92c-1.59 0-2.88 1.307-2.88 2.92s1.29 2.92 2.88 2.92zm17.33 0c1.59 0 2.88-1.307 2.88-2.92s-1.29-2.92-2.88-2.92c-1.59 0-2.88 1.307-2.88 2.92s1.29 2.92 2.88 2.92zm-34.66 17.62c1.59 0 2.88-1.307 2.88-2.92s-1.29-2.92-2.88-2.92c-1.59 0-2.88 1.307-2.88 2.92s1.29 2.92 2.88 2.92zm17.33 0c1.59 0 2.88-1.307 2.88-2.92s-1.29-2.92-2.88-2.92c-1.59 0-2.88 1.307-2.88 2.92s1.29 2.92 2.88 2.92zm17.33 0c1.59 0 2.88-1.307 2.88-2.92s-1.29-2.92-2.88-2.92c-1.59 0-2.88 1.307-2.88 2.92s1.29 2.92 2.88 2.92zm-34.66 17.62c1.59 0 2.88-1.307 2.88-2.92s-1.29-2.92-2.88-2.92c-1.59 0-2.88 1.307-2.88 2.92s1.29 2.92 2.88 2.92zm17.33 0c1.59 0 2.88-1.307 2.88-2.92s-1.29-2.92-2.88-2.92c-1.59 0-2.88 1.307-2.88 2.92s1.29 2.92 2.88 2.92zm17.33 0c1.59 0 2.88-1.307 2.88-2.92s-1.29-2.92-2.88-2.92c-1.59 0-2.88 1.307-2.88 2.92s1.29 2.92 2.88 2.92zm-34.66 17.62c1.59 0 2.88-1.307 2.88-2.92s-1.29-2.92-2.88-2.92c-1.59 0-2.88 1.307-2.88 2.92s1.29 2.92 2.88 2.92zm17.33 0c1.59 0 2.88-1.307 2.88-2.92s-1.29-2.92-2.88-2.92c-1.59 0-2.88 1.307-2.88 2.92s1.29 2.92 2.88 2.92zm17.33 0c1.59 0 2.88-1.307 2.88-2.92s-1.29-2.92-2.88-2.92c-1.59 0-2.88 1.307-2.88 2.92s1.29 2.92 2.88 2.92zm-34.66 17.62c1.59 0 2.88-1.307 2.88-2.92s-1.29-2.92-2.88-2.92c-1.59 0-2.88 1.307-2.88 2.92s1.29 2.92 2.88 2.92zm17.33 0c1.59 0 2.88-1.307 2.88-2.92s-1.29-2.92-2.88-2.92c-1.59 0-2.88 1.307-2.88 2.92s1.29 2.92 2.88 2.92zm17.33 0c1.59 0 2.88-1.307 2.88-2.92s-1.29-2.92-2.88-2.92c-1.59 0-2.88 1.307-2.88 2.92s1.29 2.92 2.88 2.92zm17.33-88.1c1.59 0 2.88-1.307 2.88-2.92s-1.29-2.92-2.88-2.92c-1.59 0-2.88 1.307-2.88 2.92s1.29 2.92 2.88 2.92zm17.34 0c1.591 0 2.88-1.307 2.88-2.92s-1.289-2.92-2.88-2.92-2.88 1.307-2.88 2.92 1.289 2.92 2.88 2.92zm17.33 0c1.591 0 2.88-1.307 2.88-2.92s-1.289-2.92-2.88-2.92-2.88 1.307-2.88 2.92 1.289 2.92 2.88 2.92zm-34.67 17.62c1.59 0 2.88-1.307 2.88-2.92s-1.29-2.92-2.88-2.92c-1.59 0-2.88 1.307-2.88 2.92s1.29 2.92 2.88 2.92zm17.34 0c1.591 0 2.88-1.307 2.88-2.92s-1.289-2.92-2.88-2.92-2.88 1.307-2.88 2.92 1.289 2.92 2.88 2.92zm17.33 0c1.591 0 2.88-1.307 2.88-2.92s-1.289-2.92-2.88-2.92-2.88 1.307-2.88 2.92 1.289 2.92 2.88 2.92zm-34.67 17.62c1.59 0 2.88-1.307 2.88-2.92s-1.29-2.92-2.88-2.92c-1.59 0-2.88 1.307-2.88 2.92s1.29 2.92 2.88 2.92zm17.34 0c1.591 0 2.88-1.307 2.88-2.92s-1.289-2.92-2.88-2.92-2.88 1.307-2.88 2.92 1.289 2.92 2.88 2.92zm17.33 0c1.591 0 2.88-1.307 2.88-2.92s-1.289-2.92-2.88-2.92-2.88 1.307-2.88 2.92 1.289 2.92 2.88 2.92zm-34.67 17.62c1.59 0 2.88-1.307 2.88-2.92s-1.29-2.92-2.88-2.92c-1.59 0-2.88 1.307-2.88 2.92s1.29 2.92 2.88 2.92zm17.34 0c1.591 0 2.88-1.307 2.88-2.92s-1.289-2.92-2.88-2.92-2.88 1.307-2.88 2.92 1.289 2.92 2.88 2.92zm17.33 0c1.591 0 2.88-1.307 2.88-2.92s-1.289-2.92-2.88-2.92-2.88 1.307-2.88 2.92 1.289 2.92 2.88 2.92zm-34.67 17.62c1.59 0 2.88-1.307 2.88-2.92s-1.29-2.92-2.88-2.92c-1.59 0-2.88 1.307-2.88 2.92s1.29 2.92 2.88 2.92zm17.34 0c1.591 0 2.88-1.307 2.88-2.92s-1.289-2.92-2.88-2.92-2.88 1.307-2.88 2.92 1.289 2.92 2.88 2.92zm17.33 0c1.591 0 2.88-1.307 2.88-2.92s-1.289-2.92-2.88-2.92-2.88 1.307-2.88 2.92 1.289 2.92 2.88 2.92zm-34.67 17.62c1.59 0 2.88-1.307 2.88-2.92s-1.29-2.92-2.88-2.92c-1.59 0-2.88 1.307-2.88 2.92s1.29 2.92 2.88 2.92zm17.34 0c1.591 0 2.88-1.307 2.88-2.92s-1.289-2.92-2.88-2.92-2.88 1.307-2.88 2.92 1.289 2.92 2.88 2.92zm17.33 0c1.591 0 2.88-1.307 2.88-2.92s-1.289-2.92-2.88-2.92-2.88 1.307-2.88 2.92 1.289 2.92 2.88 2.92zm200.42 66.82c1.591 0 2.88-1.307 2.88-2.92s-1.289-2.92-2.88-2.92-2.88 1.307-2.88 2.92 1.289 2.92 2.88 2.92zm0 17.62c1.591 0 2.88-1.307 2.88-2.92s-1.289-2.92-2.88-2.92-2.88 1.307-2.88 2.92 1.289 2.92 2.88 2.92zm0 17.62c1.591 0 2.88-1.307 2.88-2.92s-1.289-2.92-2.88-2.92-2.88 1.307-2.88 2.92 1.289 2.92 2.88 2.92zm0 17.62c1.591 0 2.88-1.307 2.88-2.92s-1.289-2.92-2.88-2.92-2.88 1.307-2.88 2.92 1.289 2.92 2.88 2.92zm17.33-52.86c1.59 0 2.88-1.307 2.88-2.92s-1.29-2.92-2.88-2.92c-1.591 0-2.88 1.307-2.88 2.92s1.289 2.92 2.88 2.92zm17.34 0c1.59 0 2.88-1.307 2.88-2.92s-1.29-2.92-2.88-2.92c-1.591 0-2.88 1.307-2.88 2.92s1.289 2.92 2.88 2.92zm17.33 0c1.591 0 2.88-1.307 2.88-2.92s-1.289-2.92-2.88-2.92-2.88 1.307-2.88 2.92 1.289 2.92 2.88 2.92zm-34.67 17.62c1.59 0 2.88-1.307 2.88-2.92s-1.29-2.92-2.88-2.92c-1.591 0-2.88 1.307-2.88 2.92s1.289 2.92 2.88 2.92zm17.34 0c1.59 0 2.88-1.307 2.88-2.92s-1.29-2.92-2.88-2.92c-1.591 0-2.88 1.307-2.88 2.92s1.289 2.92 2.88 2.92zm17.33 0c1.591 0 2.88-1.307 2.88-2.92s-1.289-2.92-2.88-2.92-2.88 1.307-2.88 2.92 1.289 2.92 2.88 2.92zm-34.67 17.62c1.59 0 2.88-1.307 2.88-2.92s-1.29-2.92-2.88-2.92c-1.591 0-2.88 1.307-2.88 2.92s1.289 2.92 2.88 2.92zm17.34 0c1.59 0 2.88-1.307 2.88-2.92s-1.29-2.92-2.88-2.92c-1.591 0-2.88 1.307-2.88 2.92s1.289 2.92 2.88 2.92zm17.33 0c1.591 0 2.88-1.307 2.88-2.92s-1.289-2.92-2.88-2.92-2.88 1.307-2.88 2.92 1.289 2.92 2.88 2.92zm-34.67 17.62c1.59 0 2.88-1.307 2.88-2.92s-1.29-2.92-2.88-2.92c-1.591 0-2.88 1.307-2.88 2.92s1.289 2.92 2.88 2.92zm17.34 0c1.59 0 2.88-1.307 2.88-2.92s-1.29-2.92-2.88-2.92c-1.591 0-2.88 1.307-2.88 2.92s1.289 2.92 2.88 2.92zm17.33 0c1.591 0 2.88-1.307 2.88-2.92s-1.289-2.92-2.88-2.92-2.88 1.307-2.88 2.92 1.289 2.92 2.88 2.92zm153.56-203.85c1.591 0 2.88-1.307 2.88-2.92s-1.289-2.92-2.88-2.92-2.88 1.307-2.88 2.92 1.289 2.92 2.88 2.92zm0 17.62c1.591 0 2.88-1.307 2.88-2.92s-1.289-2.92-2.88-2.92-2.88 1.307-2.88 2.92 1.289 2.92 2.88 2.92zm0 17.62c1.591 0 2.88-1.307 2.88-2.92s-1.289-2.92-2.88-2.92-2.88 1.307-2.88 2.92 1.289 2.92 2.88 2.92zm0 17.62c1.591 0 2.88-1.307 2.88-2.92s-1.289-2.92-2.88-2.92-2.88 1.307-2.88 2.92 1.289 2.92 2.88 2.92zm17.33-52.86c1.591 0 2.88-1.307 2.88-2.92s-1.289-2.92-2.88-2.92c-1.59 0-2.88 1.307-2.88 2.92s1.29 2.92 2.88 2.92zm17.33 0c1.591 0 2.88-1.307 2.88-2.92s-1.289-2.92-2.88-2.92-2.88 1.307-2.88 2.92 1.289 2.92 2.88 2.92zm17.33 0c1.591 0 2.88-1.307 2.88-2.92s-1.289-2.92-2.88-2.92-2.88 1.307-2.88 2.92 1.289 2.92 2.88 2.92zm-34.66 17.62c1.591 0 2.88-1.307 2.88-2.92s-1.289-2.92-2.88-2.92c-1.59 0-2.88 1.307-2.88 2.92s1.29 2.92 2.88 2.92zm17.33 0c1.591 0 2.88-1.307 2.88-2.92s-1.289-2.92-2.88-2.92-2.88 1.307-2.88 2.92 1.289 2.92 2.88 2.92zm17.33 0c1.591 0 2.88-1.307 2.88-2.92s-1.289-2.92-2.88-2.92-2.88 1.307-2.88 2.92 1.289 2.92 2.88 2.92zm-34.66 17.62c1.591 0 2.88-1.307 2.88-2.92s-1.289-2.92-2.88-2.92c-1.59 0-2.88 1.307-2.88 2.92s1.29 2.92 2.88 2.92zm17.33 0c1.591 0 2.88-1.307 2.88-2.92s-1.289-2.92-2.88-2.92-2.88 1.307-2.88 2.92 1.289 2.92 2.88 2.92zm17.33 0c1.591 0 2.88-1.307 2.88-2.92s-1.289-2.92-2.88-2.92-2.88 1.307-2.88 2.92 1.289 2.92 2.88 2.92zm-34.66 17.62c1.591 0 2.88-1.307 2.88-2.92s-1.289-2.92-2.88-2.92c-1.59 0-2.88 1.307-2.88 2.92s1.29 2.92 2.88 2.92zm17.33 0c1.591 0 2.88-1.307 2.88-2.92s-1.289-2.92-2.88-2.92-2.88 1.307-2.88 2.92 1.289 2.92 2.88 2.92zm17.33 0c1.591 0 2.88-1.307 2.88-2.92s-1.289-2.92-2.88-2.92-2.88 1.307-2.88 2.92 1.289 2.92 2.88 2.92z" fill="#F0F1F7"/><path d="M305.72 521.84h45.02c3.07 0 6.06-.78 8.73-2.26.67-.37 1.32-.77 1.95-1.23l1.73-1.26 3.26-2.38c2.14-1.59 4.63-2.66 7.24-3.16l8.05-1.55 21.29-4.11c1.31-.25 2.27-1.4 2.27-2.75 0-3.03-2.46-5.48-5.5-5.48h-15.62a13.932 13.932 0 0 1-2.85-.3l-3.16-.66-4.21-.89-28.41-5.97c-2.41-.5-3.6-3.22-2.34-5.33l6.07-10.22c.59-.98.87-2.07.87-3.15 0-1.45-.52-2.9-1.53-4.05-1.15-1.29-3.18-1.29-4.31.01l-6.4 7.37a9.503 9.503 0 0 1-5.38 3.11c-2.54.5-4.77 2-6.19 4.17l-8.75 13.5a8.02 8.02 0 0 1-7.61 3.62l-28.48-3.08 24.26 26.05z" fill="#E28520"/><path d="M385.35 497.66L381.7 510l-8.05 1.55c-2.61.5-5.1 1.57-7.24 3.16l-3.26 2.38h-7.7l22.68-20.39 3.16.66a14.417 14.417 0 0 0 2.85.3h1.21z" fill="#242729"/><path d="M388.2 486.92l-5.18 10.69-2.14 4.41c-1.1 2.25-2.74 4.21-4.79 5.65l-16.63 11.91a17.913 17.913 0 0 1-8.72 2.27h-45.02l20.4-9.77a33.207 33.207 0 0 1 15.56-3.24l3.17.11c6.05.22 12.04-1.22 17.33-4.16l8.65-4.8 3.09-4.17 6.93-9.35a5.485 5.485 0 0 1 4.41-2.22c.69 0 1.42.13 2.09.41.88.37 1.28 1.39.85 2.26z" fill="#E28520"/><path d="M309.48 445.22v141.2H47.61V278.36h95.9c13.43.07 26.48 1.73 38.98 4.79 17.11 4.2 33.19 11.03 47.77 20.05 47.54 29.4 79.22 82.01 79.22 142.02z" fill="#F0F1F7"/><path d="M240.55 287.42l-9.39.38-.98 16.97-.35 6.07a6.523 6.523 0 0 1-2.39 4.68 6.514 6.514 0 0 1-5.81 1.32l-12.76-3.17c-.13-.04-.26-.06-.39-.1l-2.52 5.34-12 25.49-2.15-1.15-43.61-23 4.08-10c.17-.42.35-.87.48-1.3a20.21 20.21 0 0 0-1.4-16l-9.63-17.9c-6.43-12.01-7.68-26.15-3.35-39.07l1.39-4.1a49.354 49.354 0 0 1 34.98-32.28 49.068 49.068 0 0 1 18.35-1l1.14.15c2.66.35 5.35.15 7.95-.54 2.64-.71 5.34-.87 7.93-.53 6.15.82 11.72 4.43 14.95 10.08l3.36 5.86c3.26 5.75 2.48 12.99-2 17.83l6.26 21.66c.42 1.45.33 2.99-.27 4.35l-1.2 2.82c-.87 1.96-.7 4.24.47 6.07l10.94 17.08c1.07 1.69-.1 3.91-2.08 3.99z" fill="#E28520"/><path d="M208.47 313.58l-14.52 30.82-2.16-1.15 1.7-50.04 3.42 9.6c1.87 5.25 6.2 9.27 11.56 10.77z" fill="#C96909"/><path d="M226.41 231.47l-16.91-3.42c-1.21-.24-2.23.9-1.86 2.07l4.41 13.85c1.1 3.47-.17 7.25-3.15 9.34l-3.68 2.58a8.337 8.337 0 0 0-3.54 7.06l.2 6.82-6.09-.81-5.39-10.79a7.832 7.832 0 0 0-5.97-4.26c-4.81-.64-9.03 3.2-8.86 8.04.25 7.12 3.01 13.91 7.79 19.2l.63.7-31.24 27.1a20.28 20.28 0 0 0-1.4-16.01l-9.63-17.91c-6.44-12-7.68-26.15-3.35-39.06l1.38-4.1a49.354 49.354 0 0 1 34.98-32.28 49.238 49.238 0 0 1 18.34-1.01l1.15.15c2.8.37 5.61.04 8.34-.63 2.52-.62 5.07-.75 7.53-.43 6.15.82 11.73 4.42 14.95 10.08l3.36 5.87c3.29 5.76 2.49 12.99-1.99 17.85z" fill="#242729"/><path d="M309.49 498.7v25.54c0 4.98-4.04 9.02-9.02 9.02h-113.7l-1.23-26.57-.99-21.28 1.48.16 22.72 2.41 7.19.77 19.72 2.09 2.96.32 9.33.99 61.54 6.55z" fill="#343BBA"/><path d="M238.62 466.49v119.94h-54.97l-.01-.01H129.2l-35.9-50.37a65.193 65.193 0 0 1-11.72-44.89l10.76-98.88a55.033 55.033 0 0 1 20.63-37.24L135 337.68l4.4-3.47c1.89-1.49 3.4-3.42 4.38-5.62l7.71-17.16.24.14 40.32 24.13 4.68 2.8 7.41 4.44a29.15 29.15 0 0 1 11.81 13.5 278.397 278.397 0 0 1 16.95 53.87c3.79 18.44 5.72 37.26 5.72 56.18z" fill="#5F67FA"/><path d="M192.61 586.42h-47.85l-37.22-99.24 48.74-72.36v87.39c0 5.67 1.27 11.26 3.72 16.36l32.61 67.85z" fill="#242729"/><path d="M183.64 586.42h-43.97l-43.35-78.86 4.13-92.74h55.83l-19.5 95.05 46.86 76.55z" fill="#5F67FA"/><path d="M335.02 512.55c6.28-3.48 13.69-4.88 20.81-3.92-5.89 3.92-13.42 3.92-20.81 3.92z" fill="#C96909"/><path d="M238.62 586.42v.01h-54.97l-.01-.01h54.98z" fill="#fff"/><path d="M555.49 265.89H366.91v206.13h188.58V265.89z" fill="#FDD853"/><path d="M461.55 428.68l-.7-4.95 46.15-6.56c3.35-.48 5.88-3.39 5.88-6.78v-18.18h5v18.18c0 5.86-4.38 10.9-10.18 11.73l-46.15 6.56zm58.7-53.14h-10v-19.2c0-27.05-22-49.05-49.05-49.05-27.05 0-49.05 22-49.05 49.05v19.2h-10v-19.2c0-32.56 26.49-59.05 59.05-59.05s59.05 26.49 59.05 59.05v19.2z" fill="#242729"/><path d="M520.25 375.54h-10v-19.2c0-27.05-22-49.05-49.05-49.05-27.05 0-49.05 22-49.05 49.05v19.2h-10v-19.2c0-32.56 26.49-59.05 59.05-59.05s59.05 26.49 59.05 59.05v19.2z" fill="#535A60"/><path d="M461.2 289.29c-18.52 0-35.31 7.55-47.45 19.72-2.04 2.05-2.03 5.37.02 7.42l10.95 10.95a5.245 5.245 0 0 0 7.42 0c7.44-7.46 17.72-12.09 29.06-12.09s21.63 4.62 29.06 12.09a5.245 5.245 0 0 0 7.42 0l10.95-10.95c2.05-2.05 2.06-5.37.02-7.42-12.14-12.17-28.93-19.72-47.45-19.72z" fill="#242729"/><path d="M418.2 364.88v35.2c0 2.59-2.11 4.7-4.71 4.7h-12.94a4.7 4.7 0 0 1-4.7-4.7v-35.2c0-2.6 2.1-4.7 4.7-4.7h12.94c2.6 0 4.71 2.1 4.71 4.7z" fill="#F48024"/><path d="M390.17 395.9l5.68 3.56V365.5l-5.68 3.56a4.89 4.89 0 0 0-2.29 4.15v18.55a4.85 4.85 0 0 0 2.29 4.14z" fill="#242729"/><path d="M521.85 404.78H508.9c-2.6 0-4.7-2.1-4.7-4.7v-35.2c0-2.6 2.1-4.7 4.7-4.7h12.95c2.6 0 4.7 2.1 4.7 4.7v35.2a4.7 4.7 0 0 1-4.7 4.7z" fill="#F48024"/><path d="M532.23 395.9l-5.68 3.56V365.5l5.68 3.56a4.89 4.89 0 0 1 2.29 4.15v18.55a4.85 4.85 0 0 1-2.29 4.14z" fill="#242729"/><path d="M418.2 364.88v35.2c0 2.59-2.11 4.7-4.71 4.7h-1.34v-44.6h1.34c2.6 0 4.71 2.1 4.71 4.7zm85.81 35.2v-35.2c0-2.59 2.11-4.7 4.71-4.7h1.34v44.6h-1.34c-2.6 0-4.71-2.1-4.71-4.7z" fill="#FFB500"/><path d="M475.24 431.08l-18.75 2.81c-3.47.52-6.7-1.87-7.22-5.34a6.348 6.348 0 0 1 5.34-7.22l18.75-2.81c3.47-.52 6.7 1.87 7.22 5.34.52 3.47-1.87 6.7-5.34 7.22z" fill="#F48024"/><path d="M410.16 265.89H306.31v30.18h103.85v-30.18z" fill="#5EBA7D"/><path d="M323.56 271.9l2.25 6.94h7.29l-5.9 4.28 2.26 6.94-5.9-4.29-5.9 4.29 2.25-6.94-5.9-4.28h7.29l2.26-6.94z" fill="#FFFFFB"/><path d="M340.9 271.9l2.25 6.94h7.29l-5.9 4.28 2.26 6.94-5.9-4.29-5.9 4.29 2.25-6.94-5.9-4.28h7.29l2.26-6.94z" fill="#FFFFFB"/><path d="M358.24 271.9l2.25 6.94h7.29l-5.9 4.28 2.26 6.94-5.9-4.29-5.9 4.29 2.25-6.94-5.9-4.28h7.29l2.26-6.94z" fill="#FFFFFB"/><path d="M375.58 271.9l2.25 6.94h7.29l-5.9 4.28 2.26 6.94-5.9-4.29-5.9 4.29 2.25-6.94-5.9-4.28h7.29l2.26-6.94z" fill="#FFFFFB"/><path d="M392.92 271.9l2.25 6.94h7.29l-5.9 4.28 2.26 6.94-5.9-4.29-5.9 4.29 2.25-6.94-5.9-4.28h7.29l2.26-6.94z" fill="#FFFFFB"/><path d="M498.19 558h-35.36v28.42h35.36V558z" fill="#F48024"/><path d="M545.05 529.22h-35.36v57.2h35.36v-57.2z" fill="#5F67FA"/><path d="M591.92 472.02h-35.36v114.4h35.36v-114.4z" fill="#5EBA7D"/><path d="M47.61 169.26l50.98-61.09 251.85 7.51 19.96-5.94v-46.3H47.61v105.82z" fill="#5F67FA"/><path d="M47.61 169.26L127.1 46.39c11.47-17.73 37.53-17.35 48.48.71l11.04 18.21c10.58 17.45 35.51 18.53 47.55 2.05 11.83-16.18 36.21-15.49 47.1 1.33l23.49 36.27v64.3H47.61z" fill="#3D8F58"/><path d="M47.61 169.26l53.49-83.14c11.5-17.88 37.7-17.73 48.99.29l5.34 8.52c9.83 15.68 31.62 18.28 44.86 5.35 9.88-9.65 25.2-11 36.61-3.22l4.01 2.73c12.83 8.74 30.27 5.83 39.57-6.6l20.19-27c12.78-17.09 39.02-15 48.93 3.91l20.78 39.63v59.52H47.61v.01z" fill="#FDD853"/><path d="M265.52 133.25s-18.51 5.93-26.76 36.01h19.94l6.82-36.01z" fill="#242729"/><path d="M507.03 169.77H370.4v41.53h136.63v-41.53z" fill="#9FA6AD"/><path d="M542.17 110.85h-39.18c-11.1 0-20.09-9-20.09-20.09v-1.35c0-11.1 9-20.09 20.09-20.09h39.18c11.1 0 20.09 9 20.09 20.09v1.35c0 11.1-9 20.09-20.09 20.09z" fill="#FDD853"/><path d="M539.99 74.84h-35.36c-8.48 0-15.36 6.83-15.36 15.25s6.87 15.25 15.36 15.25h35.36" fill="#FFB500"/><path d="M542.17 161.08h-39.18c-11.1 0-20.09-9-20.09-20.09v-1.35c0-11.1 9-20.09 20.09-20.09h39.18c11.1 0 20.09 9 20.09 20.09v1.35c0 11.09-9 20.09-20.09 20.09z" fill="#FDD853"/><path d="M504.64 155.56H540c8.48 0 15.36-6.83 15.36-15.25s-6.87-15.25-15.36-15.25h-35.36" fill="#FFB500"/><path d="M542.17 211.3h-39.18c-11.1 0-20.09-9-20.09-20.09v-1.35c0-11.1 9-20.09 20.09-20.09h39.18c11.1 0 20.09 9 20.09 20.09v1.35c0 11.09-9 20.09-20.09 20.09z" fill="#FDD853"/><path d="M504.64 205.89H540c8.48 0 15.36-6.87 15.36-15.36 0-8.48-6.87-15.36-15.36-15.36h-35.36" fill="#FFB500"/><path d="M540.1 105.34c8.422 0 15.25-6.828 15.25-15.25s-6.828-15.25-15.25-15.25-15.25 6.828-15.25 15.25 6.828 15.25 15.25 15.25z" fill="#3D8F58"/><path d="M504.53 205.78c8.422 0 15.25-6.828 15.25-15.25s-6.828-15.25-15.25-15.25-15.25 6.828-15.25 15.25 6.828 15.25 15.25 15.25zm0-50.22c8.422 0 15.25-6.828 15.25-15.25s-6.828-15.25-15.25-15.25-15.25 6.828-15.25 15.25 6.828 15.25 15.25 15.25z" fill="#FFFFFB"/><path d="M567.84 109.61c0-2.14-1.74-3.88-3.88-3.88-2.14 0-3.88 1.74-3.88 3.88v5.1-7.12c0-2.14-1.74-3.88-3.88-3.88-2.14 0-3.88 1.74-3.88 3.88v-2.7a3.88 3.88 0 1 0-7.76-.02c0-4.65.01-9.95.01-13.45 0-2.15-1.74-3.9-3.92-3.9h-.1c-2.1 0-3.79 1.7-3.79 3.8l.03 23.39v4.72l-2.43-3.82c-1.5-2.36-4.76-2.81-6.84-.94a4.525 4.525 0 0 0-.87 5.66l8.41 14.31c3.16 5.38 8.94 8.69 15.19 8.69 9.73 0 17.62-7.89 17.62-17.62v-11c-.03 0-.03-2.67-.03-5.1zM541.1 43.34h-2v18.87h2V43.34zm21.501 5.75l-9.434 16.344 1.733 1 9.433-16.344-1.732-1zm17.5 16.77l-16.344 9.433 1 1.732 16.343-9.433-.999-1.732z" fill="#242729"/><path d="M319.94 211.52l-3.59-3.59-26.73-26.72 7.6-7.61 26.73 26.73 3.59 3.59a2.698 2.698 0 0 1 0 3.81l-3.8 3.8a2.677 2.677 0 0 1-3.8-.01z" fill="#535A60"/><path d="M276.93 190.82c16.519 0 29.91-13.391 29.91-29.91S293.449 131 276.93 131s-29.91 13.391-29.91 29.91 13.391 29.91 29.91 29.91z" fill="#FFB500"/><path d="M276.93 183.57c12.515 0 22.66-10.145 22.66-22.66s-10.145-22.66-22.66-22.66-22.66 10.145-22.66 22.66 10.145 22.66 22.66 22.66z" fill="#fff"/><path d="M319.94 211.52l-3.59-3.59 7.6-7.6 3.59 3.59a2.698 2.698 0 0 1 0 3.81l-3.8 3.8a2.677 2.677 0 0 1-3.8-.01zM461.2 398.6c-16.9 0-30.65-13.75-30.65-30.65 0-13.58 8.72-25.37 21.71-29.32l.58 1.91c-12.14 3.7-20.29 14.71-20.29 27.41 0 15.8 12.85 28.65 28.65 28.65v2z" fill="#242729"/><path d="M448.2 336.3l8.71.73-3.48 8.03m17.15 52.21l-.58-1.91c12.14-3.69 20.29-14.71 20.29-27.41 0-15.8-12.85-28.65-28.65-28.65v-2c16.9 0 30.65 13.75 30.65 30.65 0 13.58-8.72 25.37-21.71 29.32z" fill="#242729"/><path d="M474.65 399.6l-8.72-.73 3.48-8.02m-45.23 61.46l-9 19.71h9v-19.71z" fill="#242729"/><path d="M469.48 452.31l-8.28-8.28-8.28 8.28h-28.74v62.14h74.04v-62.14h-28.74z" fill="#5EBA7D"/><path d="M481.29 469.59h-40.17v2h40.17v-2zm0 12.79h-40.17v2h40.17v-2zm-11.12 12.8h-29.05v2h29.05v-2zM152.72 169.65H97.59v-31.42h2v29.42h53.13v2z" fill="#242729"/><path d="M106.19 130.62H91.73v14.46h14.46v-14.46z" fill="#F48024"/><path d="M98.96 176.23c-4.39 0-7.96-3.56-7.96-7.96 0-4.39 3.56-7.96 7.96-7.96 4.39 0 7.96 3.56 7.96 7.96s-3.56 7.96-7.96 7.96z" fill="#242729"/><path d="M160.33 161.05h-14.46v14.46h14.46v-14.46z" fill="#5F67FA"/><path d="M156.68 409.09c.98-6.12-.4-12.59-3.8-17.77-.32 5.9.95 12.6 3.8 17.77zm253.48-113.02l-43.25 8.08v-8.08h43.25z" fill="#242729"/><path d="M461.39 169.77c-19.6-22.53-39.2 22.53-58.81 0v-37.55c19.6 22.53 39.2-22.53 58.81 0v37.55z" fill="#5F67FA"/><path d="M405.44 123.26h-5.73v88.04h5.73v-88.04z" fill="#535A60"/><path d="M402.58 130.84a7.58 7.58 0 1 0 0-15.16 7.58 7.58 0 0 0 0 15.16zM253.6 533.26h-14.98v-42.11l9.33.99 5.65 41.12z" fill="#242729"/><path d="M272.79 170.93l-8.39-8.39 3.54-3.54 4.85 4.86 13.13-13.13 3.54 3.53-16.67 16.67z" fill="#5EBA7D"/></svg>